<svg width="163.000000" height="24.000000" viewBox="0 0 163 24" fill="none" xmlns="http://www.w3.org/2000/svg" xmlns:xlink="http://www.w3.org/1999/xlink">
	<desc>
			Created with Pixso.
	</desc>
	<defs/>
	<rect id="Rectangle 18" x="41.500000" y="0.500000" width="121.000000" height="23.000000" stroke="#EFF2F4" stroke-opacity="1.000000" stroke-width="1.000000"/>
	<rect id="Rectangle 19" width="42.000000" height="24.000000" transform="matrix(-1 0 0 1 42 0)" fill="#D5AF86" fill-opacity="1.000000"/>
	<path id="Экономия 160 ₽" d="M52.121 17.0994C54.721 17.0994 56.645 15.0324 56.645 12.4194C56.645 9.81936 54.721 7.68736 52.095 7.68736C50.47 7.68736 49.547 8.31136 48.611 9.16936L49.04 9.63736C49.833 8.87036 50.743 8.29836 52.108 8.29836C54.188 8.29836 55.774 9.91036 55.93 12.0424L51.029 12.0424L51.029 12.6664L55.93 12.6664C55.8 14.8504 54.175 16.4884 52.095 16.4884C50.782 16.4884 49.885 15.9814 48.962 15.0714L48.507 15.5394C49.443 16.4884 50.509 17.0994 52.121 17.0994ZM58.8067 16.9434L59.4437 16.9434L59.4437 15.3314L61.0557 13.7064L63.6817 16.9434L64.4877 16.9434L61.4977 13.2514L64.3967 10.3134L63.5517 10.3134L59.4437 14.5644L59.4437 10.3134L58.8067 10.3134L58.8067 16.9434ZM68.9683 17.0994C70.9443 17.0994 72.3873 15.4874 72.3873 13.6284C72.3873 11.7434 70.9573 10.1574 68.9943 10.1574C67.0183 10.1574 65.5753 11.7694 65.5753 13.6284C65.5753 15.5134 67.0053 17.0994 68.9683 17.0994ZM68.9943 16.5014C67.4603 16.5014 66.2643 15.2274 66.2643 13.6284C66.2643 12.0424 67.4733 10.7554 68.9683 10.7554C70.4633 10.7554 71.6983 12.0294 71.6983 13.6284C71.6983 15.2144 70.4633 16.5014 68.9943 16.5014ZM74.3457 16.9434L74.9827 16.9434L74.9827 13.8364L79.3897 13.8364L79.3897 16.9434L80.0267 16.9434L80.0267 10.3134L79.3897 10.3134L79.3897 13.2644L74.9827 13.2644L74.9827 10.3134L74.3457 10.3134L74.3457 16.9434ZM85.3833 17.0994C87.3593 17.0994 88.8023 15.4874 88.8023 13.6284C88.8023 11.7434 87.3723 10.1574 85.4093 10.1574C83.4333 10.1574 81.9903 11.7694 81.9903 13.6284C81.9903 15.5134 83.4203 17.0994 85.3833 17.0994ZM85.4093 16.5014C83.8753 16.5014 82.6793 15.2274 82.6793 13.6284C82.6793 12.0424 83.8883 10.7554 85.3833 10.7554C86.8783 10.7554 88.1133 12.0294 88.1133 13.6284C88.1133 15.2144 86.8783 16.5014 85.4093 16.5014ZM90.7608 16.9434L91.3718 16.9434L91.3718 11.4184L94.0108 15.0844L96.6758 11.4184L96.6758 16.9434L97.3128 16.9434L97.3128 10.3134L96.7408 10.3134L94.0368 14.1224L91.3328 10.3134L90.7608 10.3134L90.7608 16.9434ZM99.7363 16.9434L100.373 16.9434L104.871 11.1584L104.871 16.9434L105.508 16.9434L105.508 10.3134L104.871 10.3134L100.373 16.0984L100.373 10.3134L99.7363 10.3134L99.7363 16.9434ZM107.392 16.9434L108.172 16.9434L110.148 14.3954L112.332 14.3954L112.332 16.9434L112.969 16.9434L112.969 10.3134L110.005 10.3134C108.484 10.3134 107.574 11.1194 107.574 12.2894C107.574 13.3944 108.432 14.1094 109.485 14.3044L107.392 16.9434ZM110.122 13.8234C109.056 13.8234 108.263 13.2514 108.263 12.3284C108.263 11.4574 108.939 10.8854 110.096 10.8854L112.332 10.8854L112.332 13.8234L110.122 13.8234ZM120.405 16.9434L121.068 16.9434L121.068 7.77836L120.548 7.77836L118.468 8.54536L118.65 9.07836L120.405 8.48036L120.405 16.9434ZM126.736 17.0994C128.53 17.0994 129.921 15.8254 129.921 14.1094C129.921 12.4584 128.439 11.3274 126.788 11.3274C125.306 11.3274 124.461 12.1334 123.941 13.0174L123.941 12.7964C123.941 10.1314 125.124 8.29836 126.918 8.29836C127.776 8.29836 128.465 8.63636 129.167 9.26036L129.596 8.74036C128.803 8.09036 128.01 7.68736 126.97 7.68736C124.708 7.68736 123.265 9.87136 123.265 12.6144C123.265 14.5254 123.668 15.4354 124.422 16.1894C124.968 16.7354 125.8 17.0994 126.736 17.0994ZM126.788 16.4884C125.319 16.4884 124.214 15.5004 124.214 14.2004C124.214 13.0564 125.254 11.9254 126.749 11.9254C128.192 11.9254 129.219 12.8614 129.219 14.1094C129.219 15.4224 128.257 16.4884 126.788 16.4884ZM135.375 17.0994C137.689 17.0994 139.158 14.9024 139.158 12.3934C139.158 9.85836 137.715 7.68736 135.401 7.68736C133.087 7.68736 131.618 9.88436 131.618 12.3934C131.618 14.9284 133.061 17.0994 135.375 17.0994ZM135.401 16.4884C133.516 16.4884 132.32 14.4994 132.32 12.3934C132.32 10.2484 133.49 8.29836 135.375 8.29836C137.26 8.29836 138.456 10.2744 138.456 12.3934C138.456 14.5254 137.286 16.4884 135.401 16.4884ZM148.826 13.3188L144.097 13.3188L144.097 12.3223L148.826 12.3223C149.287 12.3223 149.666 12.2482 149.962 12.1001C150.259 11.952 150.477 11.7425 150.616 11.4717C150.76 11.2008 150.832 10.8813 150.832 10.5132C150.832 10.2127 150.764 9.92497 150.629 9.6499C150.498 9.37484 150.284 9.14844 149.988 8.9707C149.696 8.79297 149.309 8.7041 148.826 8.7041L146.63 8.7041L146.63 16.9434L145.411 16.9434L145.411 7.70117L148.826 7.70117C149.524 7.70117 150.113 7.82178 150.591 8.06299C151.069 8.29997 151.431 8.63005 151.676 9.05322C151.926 9.47217 152.051 9.95459 152.051 10.5005C152.051 11.0929 151.926 11.6007 151.676 12.0239C151.431 12.4429 151.069 12.7645 150.591 12.9888C150.113 13.2088 149.524 13.3188 148.826 13.3188ZM148.75 14.1885L148.75 15.1914L144.097 15.1914L144.097 14.1885L148.75 14.1885Z" fill="#717171" fill-opacity="1.000000" fill-rule="evenodd"/>
	<path id="-15%" d="M6.5459 13.8428L9.21191 13.8428L9.21191 14.376L6.5459 14.376L6.5459 13.8428ZM12.8682 9.93262L10.2148 11.6465L10.4434 12.002L12.3223 10.8467L12.3223 16.3057L10.6719 16.4199L10.6719 16.75L15.2803 16.75C15.2803 16.5723 15.1914 16.4665 15.0137 16.4326C14.9798 16.4242 14.946 16.4199 14.9121 16.4199L13.8076 16.3057L13.8076 9.93262L12.8682 9.93262ZM21.4883 15.3027C21.4883 14.3887 21.1286 13.7243 20.4092 13.3096C19.986 13.0641 19.4951 12.9414 18.9365 12.9414C18.251 12.9499 17.6331 13.1276 17.083 13.4746L17.083 11.0752C17.7432 11.1514 18.3314 11.1895 18.8477 11.1895C19.7533 11.1895 20.3288 11.071 20.5742 10.834C20.7943 10.5716 20.9085 10.1019 20.917 9.4248L20.5869 9.4248C20.4938 9.71257 20.3203 9.8903 20.0664 9.95801C19.8887 10.0088 19.6263 10.0342 19.2793 10.0342C19.2624 10.0342 18.3864 9.99609 16.6514 9.91992L16.6514 13.6396L17.083 13.9697C17.54 13.6058 18.0098 13.4238 18.4922 13.4238C19.1862 13.4238 19.6517 13.7581 19.8887 14.4268C19.9818 14.6976 20.0283 14.998 20.0283 15.3281C20.0283 16.3776 19.7152 17.0378 19.0889 17.3086C18.9027 17.3932 18.6953 17.4355 18.4668 17.4355C18.0267 17.4355 17.7643 17.2367 17.6797 16.8389C17.6543 16.7458 17.6374 16.5977 17.6289 16.3945C17.5951 15.9629 17.5062 15.6878 17.3623 15.5693C17.2438 15.4678 17.0788 15.417 16.8672 15.417C16.4694 15.417 16.2324 15.5947 16.1562 15.9502C16.1393 16.0264 16.1309 16.0983 16.1309 16.166C16.1309 16.7585 16.4525 17.2028 17.0957 17.499C17.4766 17.6768 17.9167 17.7656 18.416 17.7656C19.4486 17.7656 20.2568 17.4779 20.8408 16.9023C21.2725 16.4622 21.4883 15.929 21.4883 15.3027ZM24.5098 17.1562L29.9941 9.00586L29.5625 8.72656L24.0654 16.877L24.5098 17.1562ZM24.6621 8.81543C23.875 8.81543 23.2783 9.11165 22.8721 9.7041C22.6266 10.0765 22.5039 10.5081 22.5039 10.999C22.5039 11.8708 22.8213 12.5013 23.4561 12.8906C23.7946 13.1022 24.1839 13.208 24.624 13.208C25.4196 13.208 26.012 12.9076 26.4014 12.3066C26.6383 11.9427 26.7568 11.5153 26.7568 11.0244C26.7568 10.1104 26.4268 9.46289 25.7666 9.08203C25.4365 8.9043 25.0684 8.81543 24.6621 8.81543ZM24.6494 12.9414C24.2601 12.9414 24.0104 12.7002 23.9004 12.2178C23.8327 11.93 23.7988 11.5322 23.7988 11.0244C23.7988 9.9834 23.9554 9.36556 24.2686 9.1709C24.3786 9.11165 24.5013 9.08203 24.6367 9.08203C25.0176 9.08203 25.263 9.33171 25.373 9.83105C25.4323 10.1188 25.4619 10.5039 25.4619 10.9863C25.4619 12.0781 25.2884 12.7087 24.9414 12.8779C24.8483 12.9202 24.751 12.9414 24.6494 12.9414ZM29.6514 12.4844C28.8643 12.4844 28.2676 12.7806 27.8613 13.373C27.6159 13.7454 27.4932 14.1771 27.4932 14.668C27.4932 15.5397 27.8105 16.1702 28.4453 16.5596C28.7839 16.7712 29.1732 16.877 29.6133 16.877C30.4089 16.877 31.0013 16.5765 31.3906 15.9756C31.6276 15.6117 31.7461 15.1842 31.7461 14.6934C31.7461 13.7793 31.416 13.1318 30.7559 12.751C30.4258 12.5732 30.0576 12.4844 29.6514 12.4844ZM29.6387 16.6104C29.2493 16.6104 28.9997 16.3691 28.8896 15.8867C28.8219 15.599 28.7881 15.2012 28.7881 14.6934C28.7881 13.6523 28.9447 13.0345 29.2578 12.8398C29.3678 12.7806 29.4906 12.751 29.626 12.751C30.0068 12.751 30.2523 13.0007 30.3623 13.5C30.4216 13.7878 30.4512 14.1729 30.4512 14.6553C30.4512 15.7471 30.2777 16.3776 29.9307 16.5469C29.846 16.5892 29.7487 16.6104 29.6387 16.6104Z" fill="#FFFFFF" fill-opacity="1.000000" fill-rule="evenodd"/>
</svg>
